<?xml version="1.0" encoding="utf-8"?>
<!-- Generator: Adobe Illustrator 23.0.4, SVG Export Plug-In . SVG Version: 6.00 Build 0)  -->
<svg version="1.1" id="Layer_1" xmlns="http://www.w3.org/2000/svg" xmlns:xlink="http://www.w3.org/1999/xlink" x="0px" y="0px"
	 viewBox="0 0 1280 393.04" style="enable-background:new 0 0 1280 393.04;" xml:space="preserve">
<style type="text/css">
	.st0{fill:#231F20;}
</style>
<path class="st0" d="M226.02,201.92c0-19.71,0.25-54.89,0.25-75.64c-0.16-4.15-1.6-6.39-4.31-6.71
	c-10.55-0.32-32.43-0.48-39.29-0.48c-1.28,0-2.16,0.96-2.64,2.88c-0.32,1.28-0.48,2.72-0.48,4.31c0.06,24.52-0.51,58.77-0.51,75.91
	c-0.11,1.66-0.89,9.82-5.91,14.82c4.61,4.82,5.66,12.33,5.87,14.51c-0.04,18.3,0.44,52.69,0.31,75.01c0,4.79,1.6,7.35,4.79,7.67
	c12.94,1.12,34.5,1.12,38.34,0c2.55-0.64,3.83-2.88,3.83-6.71c0-24.99-0.25-58.9-0.25-75.28c0,0,0.32-9.55,5.93-15.14
	C226.51,211.38,226.02,201.92,226.02,201.92z"/>
<path class="st0" d="M164.39,222.12v-6.85c0-8.26-2.85-16.32-8.55-24.19c-5.12-7.08-10.91-12.19-17.4-15.34
	c9.24-5.5,15.34-11.8,18.29-18.88c2.09-5.13,3.25-13.21,3.51-24.21h0.01l0.31-30.28h-0.02l0.02-2.16
	c0.2-11.6-4.02-21.78-12.65-30.53c-8.63-8.75-18.83-13.13-25.32-13.13H46.22c-6.45,0-7.03,1.18-7.03,3.54v7.19
	c0,1.15,0.75,1.64,0.75,1.64l6.35,5.99c0.81,0.76,0.8,2.16,0.8,2.16v78.17c0,0-0.43,12.73-7.9,20.19c7.25,7.57,7.9,20.18,7.9,20.18
	v99.3c0,2.95,0.98,4.42,2.95,4.42H96.8c24.58,0,36.82-1.97,47.24-5.9c13.57-4.91,20.35-14.35,20.35-28.32V252.4V222.12z
	 M98.31,153.01c0-26.15-0.28-56.25-0.28-66.09c0-0.92,0.71-1.01,1.76-1.09c0.63-0.05,2.31-0.09,3.26,0.04
	c1.58,0.22,3.71,3.18,5.08,6.16c1.29,2.8,1.96,15.38,1.77,22.06l-0.59,26.85c-0.2,4.53-2.58,10.81-6.93,13.11
	c-0.79,0.41-1.22,0.67-2.08,0.7C99.44,154.77,98.31,154.91,98.31,153.01z M101.6,267.72h1.14c-2.17,0-3.27,0.11-3.25-1.2V201
	c-0.06-1.15,0.7-1.25,2.07-1.07c6.41,0.87,9.33,5.61,9.52,16.82l0.3,22.67C111.57,256.53,111.83,267.72,101.6,267.72z"/>
<path class="st0" d="M543.55,269.53v-6.85c0-8.26-2.85-16.32-8.56-24.19c-5.12-7.08-10.91-12.19-17.41-15.34
	c9.24-5.5,15.34-11.8,18.29-18.88c2.09-5.13,3.25-13.21,3.51-24.21h0.01l0.31-30.28h-0.02l0.02-2.16
	c0.2-11.6-4.02-21.78-12.65-30.53c-8.63-8.75-18.83-13.13-25.32-13.13h-76.37c-6.45,0-7.03,1.18-7.03,3.54v7.19
	c0,1.15,0.75,1.64,0.75,1.64l6.35,5.99c0.81,0.76,0.81,2.16,0.81,2.16v78.17c0,0-0.43,12.73-7.9,20.18
	c7.25,7.57,7.9,20.18,7.9,20.18v99.3c0,2.95,0.98,4.42,2.95,4.42h46.76c24.58,0,36.82-1.97,47.24-5.9
	c13.57-4.91,20.35-14.35,20.35-28.32v-12.73V269.53z M477.47,198.08c0-26.15-0.1-52.05-0.3-61.89c0-1.77,0.59-2.75,1.77-2.95
	c1.18-0.19,1.78-0.14,2.97-0.07c1.96,0.63,4,3.29,5.37,6.26c1.29,2.8,1.96,15.38,1.77,22.06l-0.59,26.85
	c-0.2,4.53-2.51,10.65-6.93,13.11l-2,0.46C478.16,201.91,477.47,200.64,477.47,198.08z M480.76,315.13h1.14
	c-2.17,0-3.25-1.28-3.25-3.83v-60.71c0-2.16,0.7-3.43,2.07-3.25c6.41,0.87,9.33,5.61,9.52,16.82l0.3,22.67
	C490.73,303.94,490.98,315.13,480.76,315.13z"/>
<path class="st0" d="M341.33,193.58c-16.51-0.17-37.31-0.26-46.62-0.26c-2.63,0-3.95,1.32-3.95,3.95v25.55
	c0,1.58,0.79,2.37,2.37,2.37h3.69c1.4-0.17,2.11,0.88,2.11,3.16v13.43c0,6.15-0.2,11.57-0.1,16.09c0.2,8.73-1.61,14.93-6.36,14.87
	c-4.22-0.05-5.38-6.89-5.37-13.97c0.01-4.56,0.05-9.32,0.05-10.91v-43.16c0.25-3,0.26-35.92,0-38.72v-23.54
	c0-13.84-0.57-23.36,5.93-23.36c5.27,0,5.54,9.39,5.54,23.55c0.35,10.14-0.05,20.37,0.31,30.68c0.17,2.62,1.32,3.93,3.42,3.93
	c12.99,0.35,33.09,0.44,39.24,0.26c2.28,0,3.43-1.49,3.43-4.46c0.17-7.35,0-18.82-0.53-34.4c-0.18-16.63-2.9-28.45-8.17-35.45
	c-7.02-9.8-25.55-14.71-45.04-14.71c-14.02,0-32.92,3.41-39.24,10.22c-7.02,7.69-10.63,22.37-10.8,44.03l-0.16,33.03h-0.2
	c0,0-0.43,12.73-7.9,20.18c7.25,7.57,7.9,20.19,7.9,20.19h0.01l-0.17,33.54c-0.18,18.52,2.98,31.8,9.48,39.84
	c7.37,9.08,27.69,13.63,43.46,13.63c16.68,0,31.78-4.12,34.77-12.38c1.58,3.79,2.72,6.79,3.43,9.03c0.7,2.23,1.84,3.35,3.42,3.35
	h7.37c1.75,0,2.63-2.37,2.63-7.09v-98.01C345.28,195.08,343.97,193.58,341.33,193.58z"/>
<path class="st0" d="M1104.19,173.33c-6.76-6.74-7.45-18.01-7.5-19.07v-44.39c0-19.8-4.3-33.63-12.89-41.48
	c-6.73-6.17-24.88-9.25-39.45-9.25c-13.64,0-31.33,3.55-38.05,10.65c-8.22,8.6-12.33,23.08-12.33,43.44v41.03
	c-0.05,1.06-0.74,12.33-7.5,19.07c6.64,6.94,7.45,18.29,7.5,19.1v50.56c0,16.25,3.17,28.03,9.53,35.31
	c6.73,7.85,25.34,11.77,40.86,11.77c29.89,0,52.35-15.7,52.35-47.08v-50.56C1096.74,191.62,1097.55,180.27,1104.19,173.33z
	 M1045.32,254.67c-5.08,0.05-5.62-5.73-5.76-14.01v-48.24c0.05-0.81-0.05-14.05,5-19.1c-5.28-5.29-4.95-18.01-5-19.07v-47.11
	c0-11.21,0.39-16.81,6.19-16.81c5.23,0,5.35,5.51,5.35,16.54v47.39c-0.05,1.06,0.12,13.95-5,19.07c5.09,5.09,4.95,18.29,5,19.1
	v47.96C1051.09,249.91,1050.55,254.62,1045.32,254.67z"/>
<path class="st0" d="M794.11,160.05v-21.6c0-21.83-3.24-39.53-9.71-53.1c-8.43-17.3-21.37-25.86-38.82-25.67
	c-9.86-0.08-74.44-0.1-74.44-0.1c-1.18,0-1.76,1.18-1.76,3.54v7.19c0,1.15,0.75,1.64,0.75,1.64l6.35,5.99
	c0.54,0.51,0.71,1.28,0.77,1.75v80.52c-0.2,2.63-1.37,13.08-7.86,19.56c6.39,6.67,7.66,17.25,7.86,19.67v97.12
	c0,3.34,1.37,5.02,4.13,5.02h60.23c35,0,52.51-27.63,52.51-82.9V199.4c0.19-2.54,1.33-13.1,7.87-19.62
	C795.52,173.04,794.3,162.31,794.11,160.05z M741.58,159.6c0,0,0.05,14.87-5.27,20.19c5.24,5.24,5.27,20.18,5.27,20.18l0,7.52
	c0,13.57,1.23,46.33-2.72,55.33c-2.33,5.3-5.33,5.51-6.67,5.38c-1.38,0-2.07-0.31-2.07-1.79c0-15.43,0.01-66.43,0.01-66.43
	s-0.06-14.86,5.27-20.18c-5.4-5.4-5.27-20.18-5.27-20.18s-0.08-66.02-0.01-66.79c0.11-1.26,0.77-1.5,2.33-1.5
	c1.33,0.01,2.76-0.8,5.21,3.16c4.51,7.29,3.92,31,3.92,39.26L741.58,159.6z"/>
<path class="st0" d="M979.16,236.32c0-3.34-1.48-5.02-4.43-5.02c-7.28-0.19-27.65-0.29-40.04-0.29c-2.76,0-4.13,1.77-4.13,5.31
	c0,0.59-0.19,2.85,0.01,6.19c0,3.15,0,5.9,0,8.26c0,11.44,0.12,22.13-0.13,29.45c-0.21,6.13-2.4,9.14-5.82,9.14
	c-4.33,0-5.35-3.25-5.8-6.35c-0.73-5.02-1.03-22-1.03-27.51v-35.21c0.12-1.65,1.18-12.95,7.89-19.96
	c-6.85-6.83-7.78-18.08-7.89-19.9v-8.71c0-16.19-0.22-39.37-0.17-45.05c0.07-8.31,0.57-15.39,6.06-15.36
	c6.45,0.03,6.45,7.14,6.59,14.71c0,6.89,0,22.4,0,29.48c0.19,3.35,2.07,5.01,5.61,5.01c-0.99,0,13.97,0.2,23.81,0.59
	c7.08,0.2,11.99,0.1,14.75-0.29c2.75-0.39,4.23-2.16,4.42-5.31c0.19-3.14,0.29-7.67,0.29-13.57c0.04-1.86,0.15-53.2,0.15-53.2
	c0-4.73-0.88-7.1-2.63-7.1h-7.38c-1.58,0-2.72,1.12-3.42,3.35c-0.45,1.44-1.11,3.24-1.93,5.33c-8.12-8.64-24.72-12.98-39.32-12.98
	c-17.51,0-38.48,7.96-47.14,23.9c-5.71,10.43-8.56,20.85-8.56,31.27v47.67h-0.02c0,0-0.43,12.73-7.9,20.18
	c7.25,7.57,7.9,20.18,7.9,20.18h0.02v25.84c0,23.41,2.55,40.81,7.67,52.21c7.47,16.52,28.75,24.78,48.02,24.78
	c16.52,0,34.37-6.58,43.03-19.76c7.67-11.6,11.5-26.45,11.5-44.54C979.35,249.01,979.35,241.44,979.16,236.32z"/>
<path class="st0" d="M655.76,226.13L655.76,226.13c0.01,0-1.36-12.55,4.6-21.18c-8.57-6.17-10.86-18.67-10.86-18.67h0
	c-0.22-1.39-0.41-2.56-0.54-3.33c-7.16-43.82-11.54-65.8-13.16-65.94c-3.44-0.19-56.66-0.37-56.66-0.37c-0.89,0-1.32,0.88-1.32,2.65
	v5.39c0,0.86,0.56,1.23,0.56,1.23l4.76,4.5c0.61,0.57,0.6,1.62,0.6,1.62v0.03c-2.4,10.92-5.61,27.75-9.64,50.6
	c-0.16,0.89-0.4,2.27-0.68,3.92c-0.44,1.9-3.26,12.71-11.1,18.26c5.12,7.56,4.67,18.04,4.46,20.62
	c-4.92,29.71-9.84,59.39-14.76,88.97c-0.49,1.97,0.57,2.95,3.18,2.95h40.66c0.82,0,1.55-0.75,2.2-2.23
	c2.45-13.07,4.41-24.56,5.88-34.49c0.33-1.16,1.06-1.74,2.21-1.74h9.55c1.63,0,2.53,0.57,2.69,1.72c0.82,5.72,2.04,12.58,3.67,20.57
	c2.28,10.62,1.53,15.92,3,15.92c4.57,0,23.13,0.08,29.34,0.24c6.2,0,10.45,0,12.74,0c1.63,0,2.37-0.49,2.21-1.47
	C664.9,285.99,660.35,256.06,655.76,226.13z M613.75,249.29c-1.47,0.17-3.06,0.12-4.78-0.12c-1.72-0.24-2.49-0.61-2.33-1.1
	c0.65-5.39,1.3-10.69,1.96-15.92c1.14-8,2.12-12,2.94-12c0.65,0,2.2,9.31,4.65,27.92C616.2,248.72,615.38,249.13,613.75,249.29z"/>
<g>
	<g>
		<path class="st0" d="M1217.09,120.93c0.01,0.22,0.04,0.42,0.04,0.66C1217.11,120.92,1217.1,120.73,1217.09,120.93z"/>
		<path class="st0" d="M1216.99,203.73c0.2-34.52-0.01-81.32,0.1-82.8c-0.2-3.08-1.82-4.72-4.88-4.88c-9.22,0-24.39,0-29.7,0
			c-3.13-0.16-4.69,1.68-4.69,5.55c0,38.18,0.31,64.08,0.94,77.7c0.31,5.21-0.08,7.82-1.17,7.82c-0.79,0-1.8-2.26-3.05-6.79
			c-3.13-11.74-8.6-38.48-16.41-79.07c-0.63-3.52-2.03-5.29-4.22-5.29c-0.63,0-17.97,0.02-19.34,0l-27.16-0.04
			c-0.88,0-1.32,0.88-1.32,2.65v5.39c0,0.86,0.56,1.23,0.56,1.23l4.76,4.49c0.61,0.57,0.6,1.62,0.6,1.62v23.42l0,0
			c-0.01,16.36,0.06,35.36-0.07,49.87c-0.24,2.53-1.31,9.68-5.86,14.22c5.44,5.68,5.93,15.14,5.93,15.14s-0.2,63.2,0,81.35
			c0.04,4.02,1.79,5.94,4.92,5.77c0.78,0,11.14,0.08,16.76,0.26c4.37,0.17,7.89-0.08,10.55-0.75c3.9-0.83,5.86-2.92,5.86-6.26
			c0-11.18,0.08-26.77,0.23-46.79c0-20.19,0-32.03,0-35.54c0-3.5,0.47-5.25,1.41-5.25c1.25,0,2.18,1.26,2.81,3.78
			c6.88,31.87,11.33,60.38,16.48,85.54c0.78,3.02,2.54,5.03,5.39,5.28c8.77,0.78,28.34,0.71,36.9,0c2.54-0.21,3.75-2.94,3.75-7.31
			c0.13-27.54-0.34-65.07-0.26-80.2c0,0,0.62-9.46,6.06-15.13C1217.71,213.52,1217.05,204.98,1216.99,203.73z"/>
	</g>
</g>
<path class="st0" d="M1046.89,250.96"/>
</svg>
